<?xml version="1.0" encoding="UTF-8"?>
<!-- Do not edit this file with editors other than diagrams.net -->
<!DOCTYPE svg PUBLIC "-//W3C//DTD SVG 1.1//EN" "http://www.w3.org/Graphics/SVG/1.1/DTD/svg11.dtd">
<svg xmlns="http://www.w3.org/2000/svg" xmlns:xlink="http://www.w3.org/1999/xlink" version="1.1" width="621px" height="271px" viewBox="-0.5 -0.5 621 271" content="&lt;mxfile host=&quot;app.diagrams.net&quot; modified=&quot;2022-10-07T23:28:08.688Z&quot; agent=&quot;5.0 (Macintosh; Intel Mac OS X 10_15_7) AppleWebKit/537.36 (KHTML, like Gecko) Chrome/105.0.0.0 Safari/537.36&quot; etag=&quot;ZXdhC7WXK4mq-wd0RUhg&quot; version=&quot;20.4.0&quot; type=&quot;github&quot;&gt;&lt;diagram id=&quot;R2lEEEUBdFMjLlhIrx00&quot; name=&quot;Page-1&quot;&gt;7V1dc9o4FP01mmkfkjH+APOIDWlnNpnNpJ3d7b7sKFgYbY3FykoC/fWVbMkGRKhZQ3Bsd9KMdRHX9j1H91gXiQDLX6w+Ubic35EARcA0ghWwxsA0+32b/xaGdWYYuE5mCCkOMlOvMHzBP5A0GtL6hAOUbHVkhEQML7eNUxLHaMq2bJBS8rLdbUai7bMuYYg0w5cpjHTrnzhg88zqOkZh/4xwOFdn7hnylQVUnaUhmcOAvGyZ0IrdkJjJS7xHdAFjFDP+yh2k3xEFzmTOmLjTETBv+M9M9L4OCQkjBJc4uZ6SBTdPE97lZgYXOBJh3nDkSUf8dNYEWD4lhGVHi5WPIgGVgiG7pptXXs3jQIXfEm/wr57Xt98NFn9+sf5gd3fh/eDxyrQyN88wepIBHlGGpzzapvEBTEbAM4Hrg4kPXA8M/dTiAtf4KGPI1goYHs6lOGTwUZi8hEHKJH8sgxs4IxjEMb95a9xL21EElwlOu2eWOY6CW7gmT0w5Ui1vhlcoeMjoI/pyJt1yZ6IpnAsgvsiLES/DCIcxP57y6IgzehQl/FpuYcJkDz1+MqTPiDK02jDJeH5CZIEYXfMuq+0xIYdSz5btl4KY5kDa5hukzI1QMi3MXRcA8gOJ4TF42hqerwLFb51hGD3wUQrjMMVsGxIR14CS5VdIQ8SkYUmwiOjkGWXjJA0+jiKfREQgG5MYqW7p3Tke/+H36xvXDnD4Bfi83Sva/Ed0p8wnccIoZ4g4FeJAvSABlsfIUp4nQjN1GVRGUxw/Esb4sHsN1sPE/zXYEl2rJLjW2bB1NGzvfzsGXcJvdhalKW+OgwDF2aAUaRoWiO8Bcy8CedR34dgdimURsUsjsgGBdSQC0lkRlqO9wYjTP4YMeeQpDhIN1vw6KyDd15Dm/U3jiv9/xKEYIfWDXWXcrK+XLOEUx+Ft9s7+Di+cs/Bi9fpItU/Kk1Lu3oIogzane+Oc6b5/8XTvVsL2jUZ92fgPSse/8cl9qOHKMFMP3D4YGelztgdGIzAafpRp/xnS6RzSD6bjvP7o/U6S/56pS1XSNDnzB0Py6b/FwBy7f3/zzH8n2IfmVauf88+a+IdvmPj3Qqs/5tdwwOvhP0jTVqX9vZHQH+lFPSQrLn0Q6d6zRGVF5H2fH+zm/Z7B/zUx81ekTesSf/fEf67E3zMvnfnf6RP/QZ52mV9/3p/DZM5gmGX+MRg6wLM3Suxj4Fqq1j7YowVNmAMYJ6dR65RAffrQScHppcC5tBT0epXArZcW5EztxKBn6vMAivgpR0wVgETyH6cHNuCDhx/wpld8BqvkIODvYniBasiLs0wKjmBR+7RA/xy/04ITaYF7cS2oVuyrmRaUB6DxWqBX+jIt8NYHtGAChsae6tC7nxGUloHyBGqfDOhVxk4GTiMD+WKvy8lAtdJfzWSgXxqAxsuAXvZbkADPMAo2JgUuGLrq42GnmxT8Dx61Tw30ymOnBidSg7JLfc+mBurDimaowbA0AE1XA1Mv/Ck12JgW6GrQ+mlBeQq1TghUatB3efjcd7EEweU8srotHlskUetAj97jYZ8t87e61rcf18O0r+Uej/2XrJf63ukej8PU7XR+z26eVuzxqMqL9ol3V9M7V7p/yz0e+y9ZL+nd1DHdl0WgK+rlodCLejB75P4nTfOH9lanvtVcrhlaUHYWdwSD2icEXTnvXEJw8T0fynEjqnlmV83LcdWreUdt+3BaVME7gjaty/1WtU1hXe6v87YPq9oMr17JP2dql/wtfXbXrfU9OYvapwXVtol1WlDnfR9WtUlezbTALQ1A07XA1id43VrfUxKodTJgV9sh1slAnbd82GYlcOslA3b5VReNlwF97Ua31rf0t4Icv3qnPWrQfSHUudTg8js/7EZ9JVT3nVB5KPTCX7fW97QUap8QlKgOoSBEKuY80pitH1AEGSbxpHglQyZb3Nvjd+/N2SIC2XI/FAcj8V3+vDl5+IEo+UruYLwGcklw8doCxsHvKW2ouGMUSFqgFWZ/CWfXRq8n29+ydt+S7fFqo/N4vdG4R5Q/9qSLfjNbzGMm3F0Z3J+pLMKhoRwKQ+Exba03W7s+dSpKdibkiU7RAQRk1Zcp8Xytn5rcCjTKpsH8rxlssiw30hTFZ7R1vQeofE/SpSVqkJhq2iOFz3Z26JvdunxXQV3NkbXjyNp1lMVGc/TrMcCbxV9MyLoXf+XCmvwE&lt;/diagram&gt;&lt;/mxfile&gt;" resource="https://app.diagrams.net/#Hnemzeet%2Fboard%2Ffeature%252F%252310-db%2Fdocument%2Fproject-board-erd.svg"><defs><clipPath id="mx-clip-0-30-30-30-0"><rect x="0" y="30" width="30" height="30"/></clipPath><clipPath id="mx-clip-36-30-234-30-0"><rect x="36" y="30" width="234" height="30"/></clipPath><clipPath id="mx-clip-36-60-234-30-0"><rect x="36" y="60" width="234" height="30"/></clipPath><clipPath id="mx-clip-36-90-234-30-0"><rect x="36" y="90" width="234" height="30"/></clipPath><clipPath id="mx-clip-36-120-234-30-0"><rect x="36" y="120" width="234" height="30"/></clipPath><clipPath id="mx-clip-36-150-234-30-0"><rect x="36" y="150" width="234" height="30"/></clipPath><clipPath id="mx-clip-36-180-234-30-0"><rect x="36" y="180" width="234" height="30"/></clipPath><clipPath id="mx-clip-36-210-234-30-0"><rect x="36" y="210" width="234" height="30"/></clipPath><clipPath id="mx-clip-36-240-234-30-0"><rect x="36" y="240" width="234" height="30"/></clipPath><clipPath id="mx-clip-350-30-30-30-0"><rect x="350" y="30" width="30" height="30"/></clipPath><clipPath id="mx-clip-386-30-234-30-0"><rect x="386" y="30" width="234" height="30"/></clipPath><clipPath id="mx-clip-350-60-30-30-0"><rect x="350" y="60" width="30" height="30"/></clipPath><clipPath id="mx-clip-386-60-234-30-0"><rect x="386" y="60" width="234" height="30"/></clipPath><clipPath id="mx-clip-386-90-234-30-0"><rect x="386" y="90" width="234" height="30"/></clipPath><clipPath id="mx-clip-386-120-234-30-0"><rect x="386" y="120" width="234" height="30"/></clipPath><clipPath id="mx-clip-386-150-234-30-0"><rect x="386" y="150" width="234" height="30"/></clipPath><clipPath id="mx-clip-386-180-234-30-0"><rect x="386" y="180" width="234" height="30"/></clipPath><clipPath id="mx-clip-386-210-234-30-0"><rect x="386" y="210" width="234" height="30"/></clipPath></defs><g><path d="M 0 30 L 0 0 L 270 0 L 270 30" fill="rgb(255, 255, 255)" stroke="rgb(0, 0, 0)" stroke-miterlimit="10" pointer-events="all"/><path d="M 0 30 L 0 270 L 270 270 L 270 30" fill="none" stroke="rgb(0, 0, 0)" stroke-miterlimit="10" pointer-events="none"/><path d="M 0 30 L 270 30" fill="none" stroke="rgb(0, 0, 0)" stroke-miterlimit="10" pointer-events="none"/><path d="M 30 30 L 30 60 L 30 90 L 30 120 L 30 150 L 30 180 L 30 210 L 30 240 L 30 270" fill="none" stroke="rgb(0, 0, 0)" stroke-miterlimit="10" pointer-events="none"/><g fill="rgb(0, 0, 0)" font-family="Helvetica" font-weight="bold" pointer-events="none" text-anchor="middle" font-size="12px"><text x="134.5" y="19.5">Article (게시글)</text></g><path d="M 0 30 M 270 30 M 270 60 L 0 60" fill="none" stroke="rgb(0, 0, 0)" stroke-linecap="square" stroke-miterlimit="10" pointer-events="none"/><path d="M 0 30 M 30 30 M 30 60 M 0 60" fill="none" stroke="rgb(0, 0, 0)" stroke-linecap="square" stroke-miterlimit="10" pointer-events="none"/><g fill="rgb(0, 0, 0)" font-family="Helvetica" font-weight="bold" pointer-events="none" clip-path="url(#mx-clip-0-30-30-30-0)" text-anchor="middle" font-size="12px"><text x="14.5" y="49.5">PK</text></g><path d="M 30 30 M 270 30 M 270 60 M 30 60" fill="none" stroke="rgb(0, 0, 0)" stroke-linecap="square" stroke-miterlimit="10" pointer-events="none"/><g fill="rgb(0, 0, 0)" font-family="Helvetica" font-weight="bold" text-decoration="underline" pointer-events="none" clip-path="url(#mx-clip-36-30-234-30-0)" font-size="12px"><text x="37.5" y="49.5">id - bigint</text></g><path d="M 0 60 M 270 60 M 270 90 M 0 90" fill="none" stroke="rgb(0, 0, 0)" stroke-linecap="square" stroke-miterlimit="10" pointer-events="none"/><path d="M 0 60 M 30 60 M 30 90 M 0 90" fill="none" stroke="rgb(0, 0, 0)" stroke-linecap="square" stroke-miterlimit="10" pointer-events="none"/><path d="M 30 60 M 270 60 M 270 90 M 30 90" fill="none" stroke="rgb(0, 0, 0)" stroke-linecap="square" stroke-miterlimit="10" pointer-events="none"/><g fill="rgb(0, 0, 0)" font-family="Helvetica" font-weight="bold" pointer-events="none" clip-path="url(#mx-clip-36-60-234-30-0)" font-size="12px"><text x="37.5" y="79.5">title (제목) - varchar(255)</text></g><path d="M 0 90 M 270 90 M 270 120 M 0 120" fill="none" stroke="rgb(0, 0, 0)" stroke-linecap="square" stroke-miterlimit="10" pointer-events="none"/><path d="M 0 90 M 30 90 M 30 120 M 0 120" fill="none" stroke="rgb(0, 0, 0)" stroke-linecap="square" stroke-miterlimit="10" pointer-events="none"/><path d="M 30 90 M 270 90 M 270 120 M 30 120" fill="none" stroke="rgb(0, 0, 0)" stroke-linecap="square" stroke-miterlimit="10" pointer-events="none"/><g fill="rgb(0, 0, 0)" font-family="Helvetica" font-weight="bold" pointer-events="none" clip-path="url(#mx-clip-36-90-234-30-0)" font-size="12px"><text x="37.5" y="109.5">content (본문) - varchar(10000)</text></g><path d="M 0 120 M 270 120 M 270 150 M 0 150" fill="none" stroke="rgb(0, 0, 0)" stroke-linecap="square" stroke-miterlimit="10" pointer-events="none"/><path d="M 0 120 M 30 120 M 30 150 M 0 150" fill="none" stroke="rgb(0, 0, 0)" stroke-linecap="square" stroke-miterlimit="10" pointer-events="none"/><path d="M 30 120 M 270 120 M 270 150 M 30 150" fill="none" stroke="rgb(0, 0, 0)" stroke-linecap="square" stroke-miterlimit="10" pointer-events="none"/><g fill="rgb(0, 0, 0)" font-family="Helvetica" pointer-events="none" clip-path="url(#mx-clip-36-120-234-30-0)" font-size="12px"><text x="37.5" y="139.5">hashtag (해시태그) - varchar(255)</text></g><path d="M 0 150 M 270 150 M 270 180 M 0 180" fill="none" stroke="rgb(0, 0, 0)" stroke-linecap="square" stroke-miterlimit="10" pointer-events="none"/><path d="M 0 150 M 30 150 M 30 180 M 0 180" fill="none" stroke="rgb(0, 0, 0)" stroke-linecap="square" stroke-miterlimit="10" pointer-events="none"/><path d="M 30 150 M 270 150 M 270 180 M 30 180" fill="none" stroke="rgb(0, 0, 0)" stroke-linecap="square" stroke-miterlimit="10" pointer-events="none"/><g fill="rgb(0, 0, 0)" font-family="Helvetica" font-weight="bold" pointer-events="none" clip-path="url(#mx-clip-36-150-234-30-0)" font-size="12px"><text x="37.5" y="169.5">createAt (생성일시) - datetime</text></g><path d="M 0 180 M 270 180 M 270 210 M 0 210" fill="none" stroke="rgb(0, 0, 0)" stroke-linecap="square" stroke-miterlimit="10" pointer-events="none"/><path d="M 0 180 M 30 180 M 30 210 M 0 210" fill="none" stroke="rgb(0, 0, 0)" stroke-linecap="square" stroke-miterlimit="10" pointer-events="none"/><path d="M 30 180 M 270 180 M 270 210 M 30 210" fill="none" stroke="rgb(0, 0, 0)" stroke-linecap="square" stroke-miterlimit="10" pointer-events="none"/><g fill="rgb(0, 0, 0)" font-family="Helvetica" font-weight="bold" pointer-events="none" clip-path="url(#mx-clip-36-180-234-30-0)" font-size="12px"><text x="37.5" y="199.5">createBy (생성자) - varchar(100)</text></g><path d="M 0 210 M 270 210 M 270 240 M 0 240" fill="none" stroke="rgb(0, 0, 0)" stroke-linecap="square" stroke-miterlimit="10" pointer-events="none"/><path d="M 0 210 M 30 210 M 30 240 M 0 240" fill="none" stroke="rgb(0, 0, 0)" stroke-linecap="square" stroke-miterlimit="10" pointer-events="none"/><path d="M 30 210 M 270 210 M 270 240 M 30 240" fill="none" stroke="rgb(0, 0, 0)" stroke-linecap="square" stroke-miterlimit="10" pointer-events="none"/><g fill="rgb(0, 0, 0)" font-family="Helvetica" font-weight="bold" pointer-events="none" clip-path="url(#mx-clip-36-210-234-30-0)" font-size="12px"><text x="37.5" y="229.5">modifiedAt (수정일시) - datetime</text></g><path d="M 0 240 M 270 240 M 270 270 M 0 270" fill="none" stroke="rgb(0, 0, 0)" stroke-linecap="square" stroke-miterlimit="10" pointer-events="none"/><path d="M 0 240 M 30 240 M 30 270 M 0 270" fill="none" stroke="rgb(0, 0, 0)" stroke-linecap="square" stroke-miterlimit="10" pointer-events="none"/><path d="M 30 240 M 270 240 M 270 270 M 30 270" fill="none" stroke="rgb(0, 0, 0)" stroke-linecap="square" stroke-miterlimit="10" pointer-events="none"/><g fill="rgb(0, 0, 0)" font-family="Helvetica" font-weight="bold" pointer-events="none" clip-path="url(#mx-clip-36-240-234-30-0)" font-size="12px"><text x="37.5" y="259.5">modifiedBy (수정자) - varchar(100)</text></g><path d="M 350 30 L 350 0 L 620 0 L 620 30" fill="rgb(255, 255, 255)" stroke="rgb(0, 0, 0)" stroke-miterlimit="10" pointer-events="none"/><path d="M 350 30 L 350 240 L 620 240 L 620 30" fill="none" stroke="rgb(0, 0, 0)" stroke-miterlimit="10" pointer-events="none"/><path d="M 350 30 L 620 30" fill="none" stroke="rgb(0, 0, 0)" stroke-miterlimit="10" pointer-events="none"/><path d="M 380 30 L 380 60 L 380 90 L 380 120 L 380 150 L 380 180 L 380 210 L 380 240" fill="none" stroke="rgb(0, 0, 0)" stroke-miterlimit="10" pointer-events="none"/><g fill="rgb(0, 0, 0)" font-family="Helvetica" font-weight="bold" pointer-events="none" text-anchor="middle" font-size="12px"><text x="484.5" y="19.5">ArticleComent (댓글)</text></g><path d="M 350 30 M 620 30 M 620 60 L 350 60" fill="none" stroke="rgb(0, 0, 0)" stroke-linecap="square" stroke-miterlimit="10" pointer-events="none"/><path d="M 350 30 M 380 30 M 380 60 M 350 60" fill="none" stroke="rgb(0, 0, 0)" stroke-linecap="square" stroke-miterlimit="10" pointer-events="none"/><g fill="rgb(0, 0, 0)" font-family="Helvetica" font-weight="bold" pointer-events="none" clip-path="url(#mx-clip-350-30-30-30-0)" text-anchor="middle" font-size="12px"><text x="364.5" y="49.5">PK</text></g><path d="M 380 30 M 620 30 M 620 60 M 380 60" fill="none" stroke="rgb(0, 0, 0)" stroke-linecap="square" stroke-miterlimit="10" pointer-events="none"/><g fill="rgb(0, 0, 0)" font-family="Helvetica" font-weight="bold" text-decoration="underline" pointer-events="none" clip-path="url(#mx-clip-386-30-234-30-0)" font-size="12px"><text x="387.5" y="49.5">id - bigint</text></g><path d="M 350 60 M 620 60 M 620 90 M 350 90" fill="none" stroke="rgb(0, 0, 0)" stroke-linecap="square" stroke-miterlimit="10" pointer-events="none"/><path d="M 350 60 M 380 60 M 380 90 M 350 90" fill="none" stroke="rgb(0, 0, 0)" stroke-linecap="square" stroke-miterlimit="10" pointer-events="none"/><g fill="rgb(0, 0, 0)" font-family="Helvetica" pointer-events="none" clip-path="url(#mx-clip-350-60-30-30-0)" text-anchor="middle" font-size="12px"><text x="364.5" y="79.5">FK</text></g><path d="M 380 60 M 620 60 M 620 90 M 380 90" fill="none" stroke="rgb(0, 0, 0)" stroke-linecap="square" stroke-miterlimit="10" pointer-events="none"/><g fill="rgb(0, 0, 0)" font-family="Helvetica" font-weight="bold" pointer-events="none" clip-path="url(#mx-clip-386-60-234-30-0)" font-size="12px"><text x="387.5" y="79.5">article_id (게시글 id) - bigint</text></g><path d="M 350 90 M 620 90 M 620 120 M 350 120" fill="none" stroke="rgb(0, 0, 0)" stroke-linecap="square" stroke-miterlimit="10" pointer-events="none"/><path d="M 350 90 M 380 90 M 380 120 M 350 120" fill="none" stroke="rgb(0, 0, 0)" stroke-linecap="square" stroke-miterlimit="10" pointer-events="none"/><path d="M 380 90 M 620 90 M 620 120 M 380 120" fill="none" stroke="rgb(0, 0, 0)" stroke-linecap="square" stroke-miterlimit="10" pointer-events="none"/><g fill="rgb(0, 0, 0)" font-family="Helvetica" font-weight="bold" pointer-events="none" clip-path="url(#mx-clip-386-90-234-30-0)" font-size="12px"><text x="387.5" y="109.5">content (본문) - varchar(500)</text></g><path d="M 350 120 M 620 120 M 620 150 M 350 150" fill="none" stroke="rgb(0, 0, 0)" stroke-linecap="square" stroke-miterlimit="10" pointer-events="none"/><path d="M 350 120 M 380 120 M 380 150 M 350 150" fill="none" stroke="rgb(0, 0, 0)" stroke-linecap="square" stroke-miterlimit="10" pointer-events="none"/><path d="M 380 120 M 620 120 M 620 150 M 380 150" fill="none" stroke="rgb(0, 0, 0)" stroke-linecap="square" stroke-miterlimit="10" pointer-events="none"/><g fill="rgb(0, 0, 0)" font-family="Helvetica" font-weight="bold" pointer-events="none" clip-path="url(#mx-clip-386-120-234-30-0)" font-size="12px"><text x="387.5" y="139.5">createAt (생성일시) - datetime</text></g><path d="M 350 150 M 620 150 M 620 180 M 350 180" fill="none" stroke="rgb(0, 0, 0)" stroke-linecap="square" stroke-miterlimit="10" pointer-events="none"/><path d="M 350 150 M 380 150 M 380 180 M 350 180" fill="none" stroke="rgb(0, 0, 0)" stroke-linecap="square" stroke-miterlimit="10" pointer-events="none"/><path d="M 380 150 M 620 150 M 620 180 M 380 180" fill="none" stroke="rgb(0, 0, 0)" stroke-linecap="square" stroke-miterlimit="10" pointer-events="none"/><g fill="rgb(0, 0, 0)" font-family="Helvetica" font-weight="bold" pointer-events="none" clip-path="url(#mx-clip-386-150-234-30-0)" font-size="12px"><text x="387.5" y="169.5">createBy (생성자) - varchar(100)</text></g><path d="M 350 180 M 620 180 M 620 210 M 350 210" fill="none" stroke="rgb(0, 0, 0)" stroke-linecap="square" stroke-miterlimit="10" pointer-events="none"/><path d="M 350 180 M 380 180 M 380 210 M 350 210" fill="none" stroke="rgb(0, 0, 0)" stroke-linecap="square" stroke-miterlimit="10" pointer-events="none"/><path d="M 380 180 M 620 180 M 620 210 M 380 210" fill="none" stroke="rgb(0, 0, 0)" stroke-linecap="square" stroke-miterlimit="10" pointer-events="none"/><g fill="rgb(0, 0, 0)" font-family="Helvetica" font-weight="bold" pointer-events="none" clip-path="url(#mx-clip-386-180-234-30-0)" font-size="12px"><text x="387.5" y="199.5">modifiedAt (수정일시) - datetime</text></g><path d="M 350 210 M 620 210 M 620 240 M 350 240" fill="none" stroke="rgb(0, 0, 0)" stroke-linecap="square" stroke-miterlimit="10" pointer-events="none"/><path d="M 350 210 M 380 210 M 380 240 M 350 240" fill="none" stroke="rgb(0, 0, 0)" stroke-linecap="square" stroke-miterlimit="10" pointer-events="none"/><path d="M 380 210 M 620 210 M 620 240 M 380 240" fill="none" stroke="rgb(0, 0, 0)" stroke-linecap="square" stroke-miterlimit="10" pointer-events="none"/><g fill="rgb(0, 0, 0)" font-family="Helvetica" font-weight="bold" pointer-events="none" clip-path="url(#mx-clip-386-210-234-30-0)" font-size="12px"><text x="387.5" y="229.5">modifiedBy (수정자) - varchar(100)</text></g><path d="M 272.97 151.89 L 302.97 151.89 L 316.76 151.89 L 346.76 151.89" fill="none" stroke="rgb(0, 0, 0)" stroke-miterlimit="10" pointer-events="none"/><path d="M 276.97 147.89 L 276.97 155.89 M 280.97 147.89 L 280.97 155.89" fill="none" stroke="rgb(0, 0, 0)" stroke-miterlimit="10" pointer-events="none"/><ellipse cx="334.76" cy="151.89" rx="3" ry="3" fill="#ffffff" stroke="rgb(0, 0, 0)" pointer-events="none"/><path d="M 346.76 147.89 L 338.76 151.89 L 346.76 155.89" fill="none" stroke="rgb(0, 0, 0)" stroke-miterlimit="10" pointer-events="none"/></g></svg>