<?xml version="1.0" encoding="UTF-8"?>
<!-- Do not edit this file with editors other than diagrams.net -->
<!DOCTYPE svg PUBLIC "-//W3C//DTD SVG 1.1//EN" "http://www.w3.org/Graphics/SVG/1.1/DTD/svg11.dtd">
<svg xmlns="http://www.w3.org/2000/svg" xmlns:xlink="http://www.w3.org/1999/xlink" version="1.1" width="621px" height="271px" viewBox="-0.5 -0.5 621 271" content="&lt;mxfile host=&quot;app.diagrams.net&quot; modified=&quot;2022-10-04T12:24:06.001Z&quot; agent=&quot;5.0 (Macintosh; Intel Mac OS X 10_15_7) AppleWebKit/537.36 (KHTML, like Gecko) Chrome/105.0.0.0 Safari/537.36&quot; etag=&quot;nPjxZG0XNNanFwhk3Fzh&quot; version=&quot;20.4.0&quot; type=&quot;github&quot;&gt;&lt;diagram id=&quot;R2lEEEUBdFMjLlhIrx00&quot; name=&quot;Page-1&quot;&gt;7V1tb+I4EP41lnY/tAp5gfCRBLorXauruqu72/tycokJvg0xF9wW9tefHdsEMKHpBgobR6JVPDGTeJ7xPPbEDsAJZ8tPGZxP70iEEmBb0RI4Q2DbXd9j/7lgJQQ9JYgzHAlRpxB8wT+QFFpS+oQjtNiqSAlJKJ5vC8ckTdGYbslglpGX7WoTkmxfdQ5jpAm+jGGiS//EEZ0Kqe9ZhfwzwvFUXbljyTMzqCpLwWIKI/KyJUJLekNSKm/xHmUzmKKUsjN3MPuOMuCNppTylg6AfcM+E177OiYkThCc48X1mMyYeLxgVW4mcIYTbuYNRYFUxC7njIATZoRQcTRbhijhUCkYxD3dlJxd2yHjeit8Ibx6Xt1+t2j6+cX5g97dxfe9xyvbEWqeYfIkDTzIKB4za9vWBzAagMAGfghGIfAD0A9ziQ9866O0IV0pYJg55/yQwkcuChYUZlT6j2MxAfMICnHKGu8MO3k5SeB8gfPqQjLFSXQLV+SJKkWqFEzwEkUPwn14XeZJt0wZL3LlHIgv8mb4aZjgOGXHY2YdfsUgQwt2L7dwQWUN3X7SpM8oo2i5IZL2/ITIDNFsxaost/uE7EodV5ZfCse0e1I23XDKtRBKT4vXqgsA2YHE8C14uhqepUCxplMMkwfWS2Ea55htQ8LtGmVk/hVmMaJSMCeYW3T0jEQ/yY2PkyQkCeHIpiRFqlreOi9gH9be0Lr2gMduIGTlTlFmH149oyFJFzRjHsIvhRhQL4iDFVAyl9dJ0ETdRiatyY8fCaWs25XBetjxXwdboutUBNc5Gbaehu39b29Bl7DGTpI85E1xFKFUdEoepmGB+B4w9yKwtvouHLtdsSoibmVENiBw3oiAVFaY5c3aYMLcP4UUBeQpjRYarOv7rIF0V0Oa1betK/b3iGPeQy4PdhVxRd1gMYdjnMa34pvdHb/wTuIXy/Ke6h7VTyqpew9H6Zkc7q1Thvvu2cO9Xwvbd+r1Ve3fq2z/xgf3voYrxVQNuEMwsPJxdgAGAzDof5Rh/xlm4ynMPtieVz70/kWC/56pS12naXLkj/rk03+znj30//4W2P+OcAjtK6PH+UXg0VyjMheUBv7+Owb+vdDqw/wL7PCVzF/uuY0O+3ubrQ/peT5EJJc+8HDv2yBwOQH098X9ruc5jYn8R3Qb4wJ/O+I/VeDv2OeO/L/QiP9nunDPzMivj/encDGlMBaRfwj6noz8MsU+BL6jcu09EPhNnANYR3cj45hAPX1oqeD4VOCdmwo6nVrgXjwXCOc1jww6tj4PyBC75ICqBBAP/sP8wAWs8/AZwRAExTNYRQcR+xbFM3SBfvFek4IyLzKPC/Tn+C0XHIkL/LNzQb1k3+VzQQkAjecCPdMnuCBYHeCCEehbuzOCjnVgQY4BNFDiQObRgJ5lbGngODSwXux1Phqol/q7fBroGkoDetpvRiI8wSjamBT4oO+rx8NeOyn4CT8yjw30zGPLBkdig6pLfU/GBuphRWPZoG8mG9h64k+xwca0QGeDdlpQ2YWMIwIVGvRdHiHTvbEEgfmR07gtHq+4zisrytQ60Dfv8XBPFvmNzvVVxvVATyil9ffc47H//vRU3y+0x+OnEDE0+bdnN09j93gc0y/MI+82p3eqcP+eezz235+e0ru5xHBfAwFDk3p7du9AMeT+Jw/zh/ZW57rVXK4ZXFBjFlfmQeYRQZvOOxURnH3Ph1Lc1GyebWg2z9GzeW/a9mFbZqfwyvzGuODv1NsV1gb/S9734dSb4l189BfOa2D016d37WLfo3uReVxQb59YywWXvPHDqTfLu3wu8M3kAlef4bWLfY/pQMbRgFtvi1hLA5e858O1m00DbvPf/rS/3frijXaxb53XgrQvhJKGaN8IdSo2OP/WD7fp74Qy9KVQrp74axf7HteFzCOCCtkhFMVI2ZyZFdPVA0ogxSQdFWcEMmJ1b4e1PpjSWQLEej+URgP+Mn9WHD38QBn5Su5gugJyTXBxbgbT6PfcbTLeYhRJt0BLTP/iyq6tTkeWv4ly15Hl4XKj8nC1UbhHGRv25Kt+hSxlNuPqriymz1YSrtBSCrmg0JiXVpulXZ3CaNxSpY4oRQvylI3RAUhkGpgqNi2rVyE3sv45g00vWwuzHMXn7Ts+4Mr3JF9bojqJraY9kvhcb8d9RUvltwrX1RQ5O4qcXUXCFJqi1/sAKxY/mSCqFz9z4Yz+Bw==&lt;/diagram&gt;&lt;/mxfile&gt;" resource="https://app.diagrams.net/#Hnemzeet%2Fboard%2Ffeature%252F%25238-domain%2Fdocument%2Fproject-board-erd.svg"><defs><clipPath id="mx-clip-0-30-30-30-0"><rect x="0" y="30" width="30" height="30"/></clipPath><clipPath id="mx-clip-36-30-234-30-0"><rect x="36" y="30" width="234" height="30"/></clipPath><clipPath id="mx-clip-36-60-234-30-0"><rect x="36" y="60" width="234" height="30"/></clipPath><clipPath id="mx-clip-36-90-234-30-0"><rect x="36" y="90" width="234" height="30"/></clipPath><clipPath id="mx-clip-36-120-234-30-0"><rect x="36" y="120" width="234" height="30"/></clipPath><clipPath id="mx-clip-36-150-234-30-0"><rect x="36" y="150" width="234" height="30"/></clipPath><clipPath id="mx-clip-36-180-234-30-0"><rect x="36" y="180" width="234" height="30"/></clipPath><clipPath id="mx-clip-36-210-234-30-0"><rect x="36" y="210" width="234" height="30"/></clipPath><clipPath id="mx-clip-36-240-234-30-0"><rect x="36" y="240" width="234" height="30"/></clipPath><clipPath id="mx-clip-350-30-30-30-0"><rect x="350" y="30" width="30" height="30"/></clipPath><clipPath id="mx-clip-386-30-234-30-0"><rect x="386" y="30" width="234" height="30"/></clipPath><clipPath id="mx-clip-350-60-30-30-0"><rect x="350" y="60" width="30" height="30"/></clipPath><clipPath id="mx-clip-386-60-234-30-0"><rect x="386" y="60" width="234" height="30"/></clipPath><clipPath id="mx-clip-386-90-234-30-0"><rect x="386" y="90" width="234" height="30"/></clipPath><clipPath id="mx-clip-386-120-234-30-0"><rect x="386" y="120" width="234" height="30"/></clipPath><clipPath id="mx-clip-386-150-234-30-0"><rect x="386" y="150" width="234" height="30"/></clipPath><clipPath id="mx-clip-386-180-234-30-0"><rect x="386" y="180" width="234" height="30"/></clipPath><clipPath id="mx-clip-386-210-234-30-0"><rect x="386" y="210" width="234" height="30"/></clipPath></defs><g><path d="M 0 30 L 0 0 L 270 0 L 270 30" fill="rgb(255, 255, 255)" stroke="rgb(0, 0, 0)" stroke-miterlimit="10" pointer-events="all"/><path d="M 0 30 L 0 270 L 270 270 L 270 30" fill="none" stroke="rgb(0, 0, 0)" stroke-miterlimit="10" pointer-events="none"/><path d="M 0 30 L 270 30" fill="none" stroke="rgb(0, 0, 0)" stroke-miterlimit="10" pointer-events="none"/><path d="M 30 30 L 30 60 L 30 90 L 30 120 L 30 150 L 30 180 L 30 210 L 30 240 L 30 270" fill="none" stroke="rgb(0, 0, 0)" stroke-miterlimit="10" pointer-events="none"/><g fill="rgb(0, 0, 0)" font-family="Helvetica" font-weight="bold" pointer-events="none" text-anchor="middle" font-size="12px"><text x="134.5" y="19.5">Article (게시글)</text></g><path d="M 0 30 M 270 30 M 270 60 L 0 60" fill="none" stroke="rgb(0, 0, 0)" stroke-linecap="square" stroke-miterlimit="10" pointer-events="none"/><path d="M 0 30 M 30 30 M 30 60 M 0 60" fill="none" stroke="rgb(0, 0, 0)" stroke-linecap="square" stroke-miterlimit="10" pointer-events="none"/><g fill="rgb(0, 0, 0)" font-family="Helvetica" font-weight="bold" pointer-events="none" clip-path="url(#mx-clip-0-30-30-30-0)" text-anchor="middle" font-size="12px"><text x="14.5" y="49.5">PK</text></g><path d="M 30 30 M 270 30 M 270 60 M 30 60" fill="none" stroke="rgb(0, 0, 0)" stroke-linecap="square" stroke-miterlimit="10" pointer-events="none"/><g fill="rgb(0, 0, 0)" font-family="Helvetica" font-weight="bold" text-decoration="underline" pointer-events="none" clip-path="url(#mx-clip-36-30-234-30-0)" font-size="12px"><text x="37.5" y="49.5">id - bigint</text></g><path d="M 0 60 M 270 60 M 270 90 M 0 90" fill="none" stroke="rgb(0, 0, 0)" stroke-linecap="square" stroke-miterlimit="10" pointer-events="none"/><path d="M 0 60 M 30 60 M 30 90 M 0 90" fill="none" stroke="rgb(0, 0, 0)" stroke-linecap="square" stroke-miterlimit="10" pointer-events="none"/><path d="M 30 60 M 270 60 M 270 90 M 30 90" fill="none" stroke="rgb(0, 0, 0)" stroke-linecap="square" stroke-miterlimit="10" pointer-events="none"/><g fill="rgb(0, 0, 0)" font-family="Helvetica" font-weight="bold" pointer-events="none" clip-path="url(#mx-clip-36-60-234-30-0)" font-size="12px"><text x="37.5" y="79.5">title (제목) - varchar(255)</text></g><path d="M 0 90 M 270 90 M 270 120 M 0 120" fill="none" stroke="rgb(0, 0, 0)" stroke-linecap="square" stroke-miterlimit="10" pointer-events="none"/><path d="M 0 90 M 30 90 M 30 120 M 0 120" fill="none" stroke="rgb(0, 0, 0)" stroke-linecap="square" stroke-miterlimit="10" pointer-events="none"/><path d="M 30 90 M 270 90 M 270 120 M 30 120" fill="none" stroke="rgb(0, 0, 0)" stroke-linecap="square" stroke-miterlimit="10" pointer-events="none"/><g fill="rgb(0, 0, 0)" font-family="Helvetica" font-weight="bold" pointer-events="none" clip-path="url(#mx-clip-36-90-234-30-0)" font-size="12px"><text x="37.5" y="109.5">content (내용) - varchar(65535)</text></g><path d="M 0 120 M 270 120 M 270 150 M 0 150" fill="none" stroke="rgb(0, 0, 0)" stroke-linecap="square" stroke-miterlimit="10" pointer-events="none"/><path d="M 0 120 M 30 120 M 30 150 M 0 150" fill="none" stroke="rgb(0, 0, 0)" stroke-linecap="square" stroke-miterlimit="10" pointer-events="none"/><path d="M 30 120 M 270 120 M 270 150 M 30 150" fill="none" stroke="rgb(0, 0, 0)" stroke-linecap="square" stroke-miterlimit="10" pointer-events="none"/><g fill="rgb(0, 0, 0)" font-family="Helvetica" pointer-events="none" clip-path="url(#mx-clip-36-120-234-30-0)" font-size="12px"><text x="37.5" y="139.5">hashtag (해시태그) - varchar(255)</text></g><path d="M 0 150 M 270 150 M 270 180 M 0 180" fill="none" stroke="rgb(0, 0, 0)" stroke-linecap="square" stroke-miterlimit="10" pointer-events="none"/><path d="M 0 150 M 30 150 M 30 180 M 0 180" fill="none" stroke="rgb(0, 0, 0)" stroke-linecap="square" stroke-miterlimit="10" pointer-events="none"/><path d="M 30 150 M 270 150 M 270 180 M 30 180" fill="none" stroke="rgb(0, 0, 0)" stroke-linecap="square" stroke-miterlimit="10" pointer-events="none"/><g fill="rgb(0, 0, 0)" font-family="Helvetica" font-weight="bold" pointer-events="none" clip-path="url(#mx-clip-36-150-234-30-0)" font-size="12px"><text x="37.5" y="169.5">createAt (생성일시) - datetime</text></g><path d="M 0 180 M 270 180 M 270 210 M 0 210" fill="none" stroke="rgb(0, 0, 0)" stroke-linecap="square" stroke-miterlimit="10" pointer-events="none"/><path d="M 0 180 M 30 180 M 30 210 M 0 210" fill="none" stroke="rgb(0, 0, 0)" stroke-linecap="square" stroke-miterlimit="10" pointer-events="none"/><path d="M 30 180 M 270 180 M 270 210 M 30 210" fill="none" stroke="rgb(0, 0, 0)" stroke-linecap="square" stroke-miterlimit="10" pointer-events="none"/><g fill="rgb(0, 0, 0)" font-family="Helvetica" font-weight="bold" pointer-events="none" clip-path="url(#mx-clip-36-180-234-30-0)" font-size="12px"><text x="37.5" y="199.5">createBy (생성자) - varchar(100)</text></g><path d="M 0 210 M 270 210 M 270 240 M 0 240" fill="none" stroke="rgb(0, 0, 0)" stroke-linecap="square" stroke-miterlimit="10" pointer-events="none"/><path d="M 0 210 M 30 210 M 30 240 M 0 240" fill="none" stroke="rgb(0, 0, 0)" stroke-linecap="square" stroke-miterlimit="10" pointer-events="none"/><path d="M 30 210 M 270 210 M 270 240 M 30 240" fill="none" stroke="rgb(0, 0, 0)" stroke-linecap="square" stroke-miterlimit="10" pointer-events="none"/><g fill="rgb(0, 0, 0)" font-family="Helvetica" font-weight="bold" pointer-events="none" clip-path="url(#mx-clip-36-210-234-30-0)" font-size="12px"><text x="37.5" y="229.5">modifiedAt (수정일시) - datetime</text></g><path d="M 0 240 M 270 240 M 270 270 M 0 270" fill="none" stroke="rgb(0, 0, 0)" stroke-linecap="square" stroke-miterlimit="10" pointer-events="none"/><path d="M 0 240 M 30 240 M 30 270 M 0 270" fill="none" stroke="rgb(0, 0, 0)" stroke-linecap="square" stroke-miterlimit="10" pointer-events="none"/><path d="M 30 240 M 270 240 M 270 270 M 30 270" fill="none" stroke="rgb(0, 0, 0)" stroke-linecap="square" stroke-miterlimit="10" pointer-events="none"/><g fill="rgb(0, 0, 0)" font-family="Helvetica" font-weight="bold" pointer-events="none" clip-path="url(#mx-clip-36-240-234-30-0)" font-size="12px"><text x="37.5" y="259.5">modifiedBy (수정자) - varchar(100)</text></g><path d="M 350 30 L 350 0 L 620 0 L 620 30" fill="rgb(255, 255, 255)" stroke="rgb(0, 0, 0)" stroke-miterlimit="10" pointer-events="none"/><path d="M 350 30 L 350 240 L 620 240 L 620 30" fill="none" stroke="rgb(0, 0, 0)" stroke-miterlimit="10" pointer-events="none"/><path d="M 350 30 L 620 30" fill="none" stroke="rgb(0, 0, 0)" stroke-miterlimit="10" pointer-events="none"/><path d="M 380 30 L 380 60 L 380 90 L 380 120 L 380 150 L 380 180 L 380 210 L 380 240" fill="none" stroke="rgb(0, 0, 0)" stroke-miterlimit="10" pointer-events="none"/><g fill="rgb(0, 0, 0)" font-family="Helvetica" font-weight="bold" pointer-events="none" text-anchor="middle" font-size="12px"><text x="484.5" y="19.5">ArticleComent (댓글)</text></g><path d="M 350 30 M 620 30 M 620 60 L 350 60" fill="none" stroke="rgb(0, 0, 0)" stroke-linecap="square" stroke-miterlimit="10" pointer-events="none"/><path d="M 350 30 M 380 30 M 380 60 M 350 60" fill="none" stroke="rgb(0, 0, 0)" stroke-linecap="square" stroke-miterlimit="10" pointer-events="none"/><g fill="rgb(0, 0, 0)" font-family="Helvetica" font-weight="bold" pointer-events="none" clip-path="url(#mx-clip-350-30-30-30-0)" text-anchor="middle" font-size="12px"><text x="364.5" y="49.5">PK</text></g><path d="M 380 30 M 620 30 M 620 60 M 380 60" fill="none" stroke="rgb(0, 0, 0)" stroke-linecap="square" stroke-miterlimit="10" pointer-events="none"/><g fill="rgb(0, 0, 0)" font-family="Helvetica" font-weight="bold" text-decoration="underline" pointer-events="none" clip-path="url(#mx-clip-386-30-234-30-0)" font-size="12px"><text x="387.5" y="49.5">id - bigint</text></g><path d="M 350 60 M 620 60 M 620 90 M 350 90" fill="none" stroke="rgb(0, 0, 0)" stroke-linecap="square" stroke-miterlimit="10" pointer-events="none"/><path d="M 350 60 M 380 60 M 380 90 M 350 90" fill="none" stroke="rgb(0, 0, 0)" stroke-linecap="square" stroke-miterlimit="10" pointer-events="none"/><g fill="rgb(0, 0, 0)" font-family="Helvetica" pointer-events="none" clip-path="url(#mx-clip-350-60-30-30-0)" text-anchor="middle" font-size="12px"><text x="364.5" y="79.5">FK</text></g><path d="M 380 60 M 620 60 M 620 90 M 380 90" fill="none" stroke="rgb(0, 0, 0)" stroke-linecap="square" stroke-miterlimit="10" pointer-events="none"/><g fill="rgb(0, 0, 0)" font-family="Helvetica" font-weight="bold" pointer-events="none" clip-path="url(#mx-clip-386-60-234-30-0)" font-size="12px"><text x="387.5" y="79.5">article_id (게시글 id) - bigint</text></g><path d="M 350 90 M 620 90 M 620 120 M 350 120" fill="none" stroke="rgb(0, 0, 0)" stroke-linecap="square" stroke-miterlimit="10" pointer-events="none"/><path d="M 350 90 M 380 90 M 380 120 M 350 120" fill="none" stroke="rgb(0, 0, 0)" stroke-linecap="square" stroke-miterlimit="10" pointer-events="none"/><path d="M 380 90 M 620 90 M 620 120 M 380 120" fill="none" stroke="rgb(0, 0, 0)" stroke-linecap="square" stroke-miterlimit="10" pointer-events="none"/><g fill="rgb(0, 0, 0)" font-family="Helvetica" font-weight="bold" pointer-events="none" clip-path="url(#mx-clip-386-90-234-30-0)" font-size="12px"><text x="387.5" y="109.5">content (내용) - varchar(2000)</text></g><path d="M 350 120 M 620 120 M 620 150 M 350 150" fill="none" stroke="rgb(0, 0, 0)" stroke-linecap="square" stroke-miterlimit="10" pointer-events="none"/><path d="M 350 120 M 380 120 M 380 150 M 350 150" fill="none" stroke="rgb(0, 0, 0)" stroke-linecap="square" stroke-miterlimit="10" pointer-events="none"/><path d="M 380 120 M 620 120 M 620 150 M 380 150" fill="none" stroke="rgb(0, 0, 0)" stroke-linecap="square" stroke-miterlimit="10" pointer-events="none"/><g fill="rgb(0, 0, 0)" font-family="Helvetica" font-weight="bold" pointer-events="none" clip-path="url(#mx-clip-386-120-234-30-0)" font-size="12px"><text x="387.5" y="139.5">createAt (생성일시) - datetime</text></g><path d="M 350 150 M 620 150 M 620 180 M 350 180" fill="none" stroke="rgb(0, 0, 0)" stroke-linecap="square" stroke-miterlimit="10" pointer-events="none"/><path d="M 350 150 M 380 150 M 380 180 M 350 180" fill="none" stroke="rgb(0, 0, 0)" stroke-linecap="square" stroke-miterlimit="10" pointer-events="none"/><path d="M 380 150 M 620 150 M 620 180 M 380 180" fill="none" stroke="rgb(0, 0, 0)" stroke-linecap="square" stroke-miterlimit="10" pointer-events="none"/><g fill="rgb(0, 0, 0)" font-family="Helvetica" font-weight="bold" pointer-events="none" clip-path="url(#mx-clip-386-150-234-30-0)" font-size="12px"><text x="387.5" y="169.5">createBy (생성자) - varchar(100)</text></g><path d="M 350 180 M 620 180 M 620 210 M 350 210" fill="none" stroke="rgb(0, 0, 0)" stroke-linecap="square" stroke-miterlimit="10" pointer-events="none"/><path d="M 350 180 M 380 180 M 380 210 M 350 210" fill="none" stroke="rgb(0, 0, 0)" stroke-linecap="square" stroke-miterlimit="10" pointer-events="none"/><path d="M 380 180 M 620 180 M 620 210 M 380 210" fill="none" stroke="rgb(0, 0, 0)" stroke-linecap="square" stroke-miterlimit="10" pointer-events="none"/><g fill="rgb(0, 0, 0)" font-family="Helvetica" font-weight="bold" pointer-events="none" clip-path="url(#mx-clip-386-180-234-30-0)" font-size="12px"><text x="387.5" y="199.5">modifiedAt (수정일시) - datetime</text></g><path d="M 350 210 M 620 210 M 620 240 M 350 240" fill="none" stroke="rgb(0, 0, 0)" stroke-linecap="square" stroke-miterlimit="10" pointer-events="none"/><path d="M 350 210 M 380 210 M 380 240 M 350 240" fill="none" stroke="rgb(0, 0, 0)" stroke-linecap="square" stroke-miterlimit="10" pointer-events="none"/><path d="M 380 210 M 620 210 M 620 240 M 380 240" fill="none" stroke="rgb(0, 0, 0)" stroke-linecap="square" stroke-miterlimit="10" pointer-events="none"/><g fill="rgb(0, 0, 0)" font-family="Helvetica" font-weight="bold" pointer-events="none" clip-path="url(#mx-clip-386-210-234-30-0)" font-size="12px"><text x="387.5" y="229.5">modifiedBy (수정자) - varchar(100)</text></g><path d="M 272.97 151.89 L 302.97 151.89 L 316.76 151.89 L 346.76 151.89" fill="none" stroke="rgb(0, 0, 0)" stroke-miterlimit="10" pointer-events="none"/><path d="M 276.97 147.89 L 276.97 155.89 M 280.97 147.89 L 280.97 155.89" fill="none" stroke="rgb(0, 0, 0)" stroke-miterlimit="10" pointer-events="none"/><ellipse cx="334.76" cy="151.89" rx="3" ry="3" fill="#ffffff" stroke="rgb(0, 0, 0)" pointer-events="none"/><path d="M 346.76 147.89 L 338.76 151.89 L 346.76 155.89" fill="none" stroke="rgb(0, 0, 0)" stroke-miterlimit="10" pointer-events="none"/></g></svg>